<svg data-v-423bf9ae="" xmlns="http://www.w3.org/2000/svg" viewBox="0 0 480 90" class="iconLeft"><!----><!----><!----><g data-v-423bf9ae="" id="b32bede9-0c8e-4ad6-9970-53c5b8defdc4" fill="#2A1B3C" transform="matrix(5.39083552408516,0,0,5.39083552408516,105.09435227328936,5.943397151752727)"><path d="M7.98 2.80L7.98 8.55L0.91 2.59L0.91 12.60L2.87 12.60L2.87 6.85L9.94 12.81L9.94 2.80ZM16.21 8.62L13.09 8.62C13.16 8.22 13.36 7.91 13.68 7.69C14.00 7.46 14.35 7.35 14.74 7.35C15.60 7.35 16.09 7.77 16.21 8.62ZM13.08 9.87L18.17 9.87C18.19 9.69 18.20 9.49 18.20 9.25C18.20 8.25 17.89 7.44 17.26 6.85C16.64 6.25 15.80 5.95 14.74 5.95C13.67 5.95 12.80 6.27 12.13 6.92C11.46 7.57 11.13 8.39 11.13 9.38C11.13 10.38 11.45 11.19 12.09 11.81C12.73 12.43 13.61 12.74 14.74 12.74C16.38 12.74 17.50 12.10 18.12 10.82L16.32 10.42C16.03 10.99 15.51 11.27 14.74 11.27C13.79 11.27 13.23 10.80 13.08 9.87ZM23.52 6.16L21.97 8.02L20.44 6.16L18.27 6.16L20.89 9.30L18.13 12.60L20.30 12.60L21.95 10.57L23.66 12.60L25.69 12.60L22.99 9.30L25.55 6.16ZM26.81 3.92L26.81 6.16L25.76 6.16L25.76 7.77L26.81 7.77L26.81 12.60L28.70 12.60L28.70 7.77L29.75 7.77L29.75 6.16L28.70 6.16L28.70 3.92ZM30.66 4.55L33.18 4.55L33.18 12.60L35.14 12.60L35.14 4.55L37.66 4.55L37.66 2.80L30.66 2.80ZM38.36 3.61C38.36 3.91 38.47 4.17 38.70 4.38C38.93 4.60 39.20 4.70 39.52 4.70C39.84 4.70 40.11 4.60 40.34 4.38C40.57 4.17 40.68 3.91 40.68 3.61C40.68 3.31 40.57 3.06 40.34 2.84C40.11 2.63 39.84 2.52 39.52 2.52C39.20 2.52 38.93 2.63 38.70 2.84C38.47 3.06 38.36 3.31 38.36 3.61ZM38.56 6.16L38.56 12.60L40.47 12.60L40.47 6.16ZM43.64 9.38C43.64 8.83 43.82 8.41 44.18 8.11C44.54 7.82 45.02 7.67 45.63 7.67C46.06 7.67 46.49 7.77 46.89 7.96C47.30 8.15 47.58 8.37 47.73 8.62L47.73 6.50C47.11 6.13 46.36 5.95 45.49 5.95C44.33 5.95 43.40 6.26 42.71 6.88C42.01 7.50 41.66 8.33 41.66 9.38C41.66 10.43 42.01 11.26 42.71 11.88C43.40 12.50 44.33 12.81 45.49 12.81C46.48 12.81 47.22 12.63 47.73 12.26L47.73 10.12C47.57 10.39 47.30 10.62 46.92 10.81C46.54 10.99 46.11 11.09 45.63 11.09C45.02 11.09 44.54 10.94 44.18 10.65C43.82 10.35 43.64 9.93 43.64 9.38ZM49.34 1.68L49.34 12.60L51.23 12.60L51.23 9.25L53.89 12.60L56.27 12.60L53.26 8.82L55.99 6.16L53.55 6.16L51.23 8.43L51.23 1.68ZM61.21 8.62L58.09 8.62C58.16 8.22 58.36 7.91 58.67 7.69C58.99 7.46 59.35 7.35 59.74 7.35C60.60 7.35 61.09 7.77 61.21 8.62ZM58.07 9.87L63.17 9.87C63.19 9.69 63.20 9.49 63.20 9.25C63.20 8.25 62.88 7.44 62.26 6.85C61.63 6.25 60.79 5.95 59.74 5.95C58.66 5.95 57.79 6.27 57.13 6.92C56.46 7.57 56.13 8.39 56.13 9.38C56.13 10.38 56.45 11.19 57.09 11.81C57.72 12.43 58.61 12.74 59.74 12.74C61.37 12.74 62.50 12.10 63.11 10.82L61.32 10.42C61.03 10.99 60.50 11.27 59.74 11.27C58.79 11.27 58.23 10.80 58.07 9.87ZM68.50 8.15L69.47 6.64C69.12 6.22 68.60 6.01 67.91 6.01C67.28 6.01 66.73 6.35 66.28 7.03L66.28 6.16L64.32 6.16L64.32 12.60L66.28 12.60L66.28 9.02C66.28 8.57 66.37 8.26 66.55 8.09C66.73 7.91 67.02 7.83 67.42 7.83C67.84 7.83 68.20 7.93 68.50 8.15Z"></path></g><defs data-v-423bf9ae=""><linearGradient data-v-423bf9ae="" gradientTransform="rotate(25)" id="c6f63621-e08c-4b39-afd2-98a7febf5a68" x1="0%" y1="0%" x2="100%" y2="0%"><stop data-v-423bf9ae="" offset="0%" style="stop-color: rgb(54, 22, 172); stop-opacity: 1;"></stop><stop data-v-423bf9ae="" offset="100%" style="stop-color: rgb(224, 155, 237); stop-opacity: 1;"></stop></linearGradient></defs><g data-v-423bf9ae="" id="2f4837ef-e3b1-4515-b9ec-0b7f12e92a13" transform="matrix(2.8125,0,0,2.8125,0,0)" stroke="none" fill="url(#c6f63621-e08c-4b39-afd2-98a7febf5a68)"><path d="M4.029 14.362L14.362 4.028l.707.707L4.736 15.07zM17.135 27.47L27.47 17.135l.707.707-10.333 10.333zM4.029 17.841l.707-.707 10.333 10.334-.707.707zM17.135 4.735l.708-.707L28.176 14.36l-.707.707z"></path><g><path d="M16 1.414l1.683 1.683L16 4.779l-1.683-1.683L16 1.414M16 0l-3.097 3.097L16 6.194l3.097-3.097L16 0zM16 27.221l1.683 1.683L16 30.586l-1.683-1.683L16 27.221m0-1.415l-3.097 3.097L16 32l3.097-3.097L16 25.806zM3.097 14.317L4.779 16l-1.683 1.683L1.414 16l1.683-1.683m0-1.414L0 16l3.097 3.097L6.194 16l-3.097-3.097zM28.903 14.317L30.586 16l-1.683 1.683L27.221 16l1.682-1.683m0-1.414L25.806 16l3.097 3.097L32 16l-3.097-3.097z"></path></g></g><!----></svg>